<?xml version="1.0" standalone="no"?>
<!DOCTYPE svg PUBLIC "-//W3C//DTD SVG 20010904//EN"
 "http://www.w3.org/TR/2001/REC-SVG-20010904/DTD/svg10.dtd">
<svg version="1.0" xmlns="http://www.w3.org/2000/svg"
 width="1080.000000pt" height="1080.000000pt" viewBox="0 0 1080.000000 1080.000000"
 preserveAspectRatio="xMidYMid meet">
<circle r="540" cx="540" cy="540" fill="white"/>
<g transform="translate(0.000000,1080.000000) scale(0.100000,-0.100000)"
fill="#000000" stroke="none">
<path d="M5840 9699 c-25 -5 -90 -18 -145 -29 -170 -33 -331 -95 -483 -187
-387 -233 -642 -573 -768 -1023 -25 -88 -27 -112 -31 -345 -4 -197 -2 -269 11
-340 18 -108 72 -275 126 -392 153 -330 438 -626 757 -787 101 -50 349 -131
462 -150 122 -21 384 -21 533 -1 633 86 1179 595 1346 1253 26 103 27 117 27
372 0 246 -2 272 -24 355 -134 513 -452 910 -903 1125 -122 58 -253 103 -363
124 -168 33 -446 45 -545 25z m470 -313 c407 -87 742 -341 922 -700 102 -203
150 -409 149 -642 0 -213 -45 -397 -146 -593 -188 -366 -543 -629 -955 -706
-142 -27 -354 -26 -498 3 -259 52 -471 163 -661 346 -198 192 -312 387 -383
656 -39 149 -49 360 -24 517 93 588 546 1039 1139 1134 81 12 371 3 457 -15z"/>
<path d="M5937 9092 c-46 -28 -66 -78 -73 -189 -6 -95 -20 -133 -48 -133 -22
0 -117 -86 -161 -145 -111 -148 -114 -353 -8 -513 68 -101 162 -156 323 -188
106 -21 128 -32 161 -77 87 -120 -45 -271 -186 -213 -19 8 -56 35 -82 59 -86
79 -161 104 -221 73 -77 -40 -102 -119 -62 -201 26 -54 132 -147 221 -195 l56
-30 10 -122 10 -122 37 -32 c41 -36 89 -47 139 -33 80 22 106 69 108 194 1 98
8 116 54 140 22 11 69 49 104 84 143 144 178 341 91 518 -64 129 -176 209
-343 242 -117 24 -145 36 -174 80 -86 127 75 280 208 198 158 -96 169 -100
232 -73 69 28 109 106 87 170 -15 47 -117 140 -196 179 l-64 31 0 89 c0 111
-14 160 -57 197 -28 25 -42 30 -86 30 -31 0 -63 -7 -80 -18z"/>
<path d="M8525 6519 c-27 -4 -86 -26 -131 -48 -108 -54 -178 -120 -675 -632
l-404 -415 -70 59 c-38 33 -102 75 -140 93 -135 65 -121 64 -1075 70 l-865 6
-140 43 c-179 55 -274 73 -458 86 -258 18 -570 -18 -798 -92 -121 -39 -352
-152 -451 -221 -189 -131 -376 -322 -504 -514 l-73 -111 -98 -6 c-80 -6 -109
-12 -158 -36 -91 -45 -165 -112 -546 -488 l-349 -346 0 -72 0 -73 833 -838
c457 -460 858 -859 890 -886 65 -54 101 -61 165 -31 40 18 695 670 787 783 93
114 100 134 101 295 l1 139 112 103 c133 121 153 130 346 143 72 5 580 11
1130 15 953 6 1004 7 1095 26 127 27 198 50 299 94 120 53 244 130 314 195
195 180 1459 1700 1528 1836 l31 62 -4 188 -3 189 -38 70 c-65 123 -170 222
-291 276 -97 43 -242 58 -361 38z m221 -304 c107 -44 180 -137 191 -239 10
-94 -3 -139 -59 -214 -166 -218 -927 -1133 -1260 -1515 -67 -76 -153 -163
-191 -193 -83 -65 -241 -144 -347 -174 -83 -24 -168 -27 -1740 -51 l-735 -11
-72 -33 c-95 -44 -177 -100 -282 -195 l-87 -79 -475 477 c-261 262 -523 527
-584 589 l-109 112 79 118 c145 217 347 396 571 507 256 127 488 172 841 163
231 -6 282 -14 475 -78 l121 -41 891 -9 c512 -5 911 -13 938 -18 63 -14 100
-33 142 -77 76 -78 103 -191 72 -299 -22 -73 -94 -153 -168 -185 -50 -21 -65
-22 -731 -32 l-681 -10 -20 -26 c-36 -44 -45 -66 -45 -107 0 -46 11 -69 57
-119 l32 -36 574 0 c614 0 794 8 893 41 181 59 341 241 393 446 11 43 20 101
19 130 -2 44 3 58 27 90 48 63 311 337 665 694 374 375 392 389 506 389 35 0
80 -7 99 -15z m-6086 -1675 c17 0 48 -15 78 -38 28 -21 339 -323 691 -671
l641 -633 0 -73 0 -73 -321 -316 c-177 -174 -326 -316 -331 -316 -5 0 -340
329 -744 732 l-735 732 333 333 c200 200 338 331 346 328 8 -3 26 -5 42 -5z"/>
</g>
</svg>
